<?xml version="1.0" encoding="utf-8"?>
<!-- Generator: Adobe Illustrator 18.1.1, SVG Export Plug-In . SVG Version: 6.00 Build 0)  -->
<svg version="1.1" id="Layer_1" xmlns="http://www.w3.org/2000/svg" xmlns:xlink="http://www.w3.org/1999/xlink" x="0px" y="0px"
	 viewBox="0 0 125 125" enable-background="new 0 0 125 125" xml:space="preserve">
<g>
	<path fill="#7AB9DD" d="M9.2,49.4H10c1.1,0,2.1,0.4,2.8,1.1c0.8,0.7,1.1,1.6,1.1,2.7c0,0.7-0.2,1.3-0.6,2c-0.4,0.7-0.9,1.1-1.5,1.3
		c1.3,0.3,2.4,1,3.3,2.1c0.9,1.1,1.3,2.5,1.3,4.1c0,1.7-0.6,3.1-1.9,4.3s-2.8,1.8-4.6,1.8H9.2V49.4z M10,50.1v6.1h0.2
		c0.8,0,1.5-0.3,2.1-0.9c0.6-0.6,0.9-1.4,0.9-2.2c0-0.8-0.3-1.5-0.9-2.1c-0.6-0.6-1.3-0.9-2.1-0.9H10z M10,56.9v11.2h0.2
		c1.5,0,2.8-0.6,3.9-1.7c1.1-1.1,1.6-2.4,1.6-4c0-1.5-0.5-2.8-1.6-3.9c-1.1-1.1-2.4-1.7-3.9-1.7H10z"/>
	<path fill="#7AB9DD" d="M30.9,57.2v11.7H30V66c-0.5,1-1.2,1.8-2.2,2.3s-2,0.9-3.1,0.9c-1.7,0-3.2-0.6-4.4-1.8
		c-1.2-1.2-1.8-2.6-1.8-4.3s0.6-3.1,1.8-4.3c1.2-1.2,2.7-1.8,4.4-1.8c1.1,0,2.2,0.3,3.2,0.9c1,0.6,1.7,1.4,2.1,2.3v-2.9H30.9z
		 M19.4,63.1c0,1.5,0.5,2.7,1.6,3.8c1.1,1.1,2.3,1.6,3.8,1.6c1.5,0,2.7-0.5,3.8-1.6s1.6-2.3,1.6-3.8s-0.5-2.7-1.6-3.8
		s-2.3-1.6-3.8-1.6S22,58.2,21,59.2C19.9,60.3,19.4,61.6,19.4,63.1z"/>
	<path fill="#7AB9DD" d="M34.8,68.9H34V57.2h0.8v2.4c0.9-1.8,2.4-2.7,4.5-2.7c1.5,0,2.7,0.5,3.7,1.5c1,1,1.5,2.2,1.5,3.7v6.8h-0.8
		v-6.8c0-1.2-0.4-2.2-1.3-3.1c-0.8-0.9-1.9-1.3-3.1-1.3s-2.2,0.4-3.2,1.3c-0.9,0.9-1.4,1.9-1.4,3.1V68.9z"/>
	<path fill="#7AB9DD" d="M59.2,49.4v19.5h-0.8V66c-0.5,1-1.3,1.7-2.3,2.3c-1,0.6-2,0.8-3,0.8c-1.7,0-3.2-0.6-4.4-1.8
		c-1.2-1.2-1.8-2.6-1.8-4.3s0.6-3.1,1.8-4.3c1.2-1.2,2.7-1.8,4.4-1.8c1.1,0,2.1,0.3,3.1,0.9c1,0.6,1.7,1.3,2.2,2.3V49.4H59.2z
		 M47.7,63c0,1.5,0.5,2.7,1.6,3.8s2.3,1.6,3.8,1.6s2.7-0.5,3.8-1.6c1.1-1.1,1.6-2.3,1.6-3.8c0-1.5-0.5-2.7-1.6-3.8
		c-1.1-1.1-2.3-1.6-3.8-1.6s-2.7,0.5-3.8,1.6C48.2,60.3,47.7,61.6,47.7,63z"/>
	<path fill="#7AB9DD" d="M70,61.4v-0.8h7.3v7c-1.5,1-3.2,1.4-5.1,1.4h-0.3c-1.8,0-3.5-0.5-5-1.4c-1.5-0.9-2.8-2.2-3.7-3.7
		c-0.9-1.6-1.3-3.2-1.3-5c0-2.8,1-5.1,3-7.1c2-2,4.4-3,7.1-3c1.9,0,3.6,0.5,5.3,1.5v1c-1.6-1.1-3.4-1.7-5.3-1.7
		c-2.5,0-4.7,0.9-6.6,2.7c-1.8,1.8-2.7,4-2.7,6.6s0.9,4.8,2.7,6.6c1.8,1.8,4,2.8,6.6,2.8c1.4,0,2.9-0.4,4.4-1.1v-5.9H70z"/>
	<path fill="#7AB9DD" d="M90,57.2h0.8v11.7H90v-2.4c-0.9,1.8-2.4,2.7-4.5,2.7c-1.5,0-2.7-0.5-3.7-1.5c-1-1-1.5-2.2-1.5-3.7v-6.8h0.8
		V64c0,1.2,0.4,2.2,1.3,3.1c0.8,0.9,1.9,1.3,3.1,1.3c1.2,0,2.2-0.4,3.2-1.3c0.9-0.9,1.4-1.9,1.4-3.1V57.2z"/>
	<path fill="#7AB9DD" d="M98.1,57.6c-0.9,0-1.7,0.3-2.4,1s-1.1,1.5-1.1,2.4v7.8h-0.8V57.2h0.8v1.7c0.3-0.6,0.8-1.1,1.5-1.5
		c0.7-0.4,1.4-0.6,2.2-0.6s1.6,0.3,2.3,0.8v1C99.9,58,99,57.6,98.1,57.6z"/>
	<path fill="#7AB9DD" d="M112,57.2h0.8v11.7H112v-2.4c-0.9,1.8-2.4,2.7-4.5,2.7c-1.5,0-2.7-0.5-3.7-1.5c-1-1-1.5-2.2-1.5-3.7v-6.8
		h0.8V64c0,1.2,0.4,2.2,1.3,3.1c0.8,0.9,1.9,1.3,3.1,1.3c1.2,0,2.2-0.4,3.2-1.3c0.9-0.9,1.4-1.9,1.4-3.1V57.2z"/>
</g>
</svg>
